<svg xmlns="http://www.w3.org/2000/svg" xmlns:xlink="http://www.w3.org/1999/xlink" width="300" zoomAndPan="magnify" viewBox="0 0 224.87999 56.249996" height="75" preserveAspectRatio="xMidYMid meet" version="1.0"><defs><g/></defs><g fill="#008037" fill-opacity="1"><g transform="translate(1.420265, 46.276009)"><g><path d="M 2.179688 0 L 35.003906 0 C 42.550781 0 48.679688 -2.886719 48.679688 -9.117188 C 48.679688 -15.296875 42.550781 -18.1875 35.003906 -18.1875 L 32.976562 -18.1875 L 32.976562 -18.894531 L 33.941406 -18.894531 C 40.828125 -18.894531 46.453125 -21.578125 46.453125 -27.152344 C 46.453125 -32.824219 40.726562 -35.460938 33.6875 -35.460938 L 2.179688 -35.460938 C 3.292969 -31.8125 4.050781 -25.480469 4.050781 -20.515625 L 4.050781 -14.945312 C 4.050781 -9.980469 3.34375 -3.699219 2.179688 0 Z M 19.957031 -20.160156 L 19.957031 -23.707031 L 28.46875 -23.707031 C 29.988281 -23.707031 31.101562 -23.148438 31.101562 -21.933594 C 31.101562 -20.71875 29.988281 -20.160156 28.46875 -20.160156 Z M 19.957031 -12.054688 L 19.957031 -16.3125 L 29.632812 -16.3125 C 31.304688 -16.3125 32.523438 -15.652344 32.523438 -14.183594 C 32.523438 -12.765625 31.304688 -12.054688 29.632812 -12.054688 Z M 19.957031 -12.054688 "/></g></g></g><g fill="#008037" fill-opacity="1"><g transform="translate(50.646202, 46.276009)"><g><path d="M 2.179688 0 L 21.882812 0 C 20.667969 -3.699219 20.007812 -9.980469 20.007812 -14.945312 L 20.007812 -20.515625 C 20.007812 -25.480469 20.71875 -31.8125 21.882812 -35.460938 L 2.179688 -35.460938 C 3.34375 -31.8125 4.050781 -25.480469 4.050781 -20.515625 L 4.050781 -14.945312 C 4.050781 -9.980469 3.394531 -3.699219 2.179688 0 Z M 2.179688 0 "/></g></g></g><g fill="#008037" fill-opacity="1"><g transform="translate(74.702089, 46.276009)"><g><path d="M 13.171875 0 L 32.824219 0 C 31.660156 -3.699219 30.949219 -9.980469 30.949219 -14.945312 L 30.949219 -21.679688 L 34.699219 -21.679688 C 39.257812 -21.679688 42.753906 -21.175781 45.539062 -19.957031 L 42.804688 -35.460938 L 2.988281 -35.460938 L 0.253906 -19.957031 C 3.191406 -21.277344 6.484375 -21.679688 11.144531 -21.679688 L 14.996094 -21.679688 L 14.996094 -14.945312 C 14.996094 -9.980469 14.335938 -3.699219 13.171875 0 Z M 13.171875 0 "/></g></g></g><g fill="#008037" fill-opacity="1"><g transform="translate(120.484241, 46.276009)"><g><path d="M 2.179688 0 L 44.121094 0 L 46.65625 -16.109375 C 44.324219 -14.4375 40.121094 -13.273438 33.585938 -13.273438 L 20.007812 -13.273438 L 20.007812 -15.550781 L 29.53125 -15.550781 C 32.015625 -15.550781 34.800781 -15.449219 36.625 -15.195312 L 36.625 -20.160156 C 34.800781 -19.957031 32.015625 -19.855469 29.53125 -19.855469 L 20.007812 -19.855469 L 20.007812 -22.1875 L 34.09375 -22.1875 C 39.15625 -22.1875 43.261719 -21.476562 44.933594 -20.210938 L 42.90625 -35.460938 L 2.179688 -35.460938 C 3.292969 -31.8125 4.050781 -25.480469 4.050781 -20.515625 L 4.050781 -14.945312 C 4.050781 -9.980469 3.394531 -3.699219 2.179688 0 Z M 2.179688 0 "/></g></g></g><g fill="#008037" fill-opacity="1"><g transform="translate(167.836351, 46.276009)"><g><path d="M 24.519531 0.761719 C 38.753906 0.761719 47.566406 -2.53125 47.566406 -10.332031 C 47.566406 -23.960938 17.476562 -16.464844 17.476562 -21.277344 C 17.476562 -22.441406 20.566406 -22.949219 24.667969 -22.949219 C 31.761719 -22.949219 38.855469 -21.328125 43.363281 -18.792969 L 43.363281 -33.484375 C 38.449219 -35.15625 30.34375 -36.21875 24.0625 -36.21875 C 10.890625 -36.21875 1.011719 -33.332031 1.011719 -25.328125 C 1.011719 -11.347656 30.949219 -17.78125 30.949219 -13.878906 C 30.949219 -12.765625 28.265625 -12.410156 24.0625 -12.410156 C 14.539062 -12.410156 6.28125 -14.4375 1.214844 -18.589844 L 0.609375 -2.53125 C 6.179688 -0.859375 17.933594 0.761719 24.519531 0.761719 Z M 24.519531 0.761719 "/></g></g></g></svg>